@startuml
'https://plantuml.com/class-diagram

abstract class RutTienAtm {
    # int giaTri
    + RutTienAtm setTiepTheo(RutTienAtm tiepTheo)
    + void rutTien(int soTien)
}

class MenhGiaTT
class MenhGiaNN

RutTienAtm <|-- MenhGiaTT
RutTienAtm <-- MenhGiaTT: mgTiepTheo
RutTienAtm <|-- MenhGiaNN

@enduml