@startuml
'https://plantuml.com/class-diagram

abstract class XepHocLuc {
    # int minDiem, maxDiem
    # String ten
    + {abstract} XepHocLuc setKeTiep(XepHocLuc keTiep)
    + {abstract} void getHocLuc(int diem)
}
class HocLucYeu
class HocLucKhac

XepHocLuc <|-- HocLucYeu
XepHocLuc <|-- HocLucKhac
XepHocLuc <--- HocLucKhac: keTiep

@enduml