@startuml
'https://plantuml.com/class-diagram

abstract class TienDienBacThang {
    # String tenBac
    # int min, max, gia
    + {abstract} TienDienBacThang bacKeTiep(TienDienBacThang b)
    + {abstract} int tinhTienDien(int soKW)
}
class BacCaoNhat
class BacThongThuong

TienDienBacThang <|-- BacCaoNhat
TienDienBacThang <|-- BacThongThuong
BacThongThuong --> TienDienBacThang: "bacKeTiep"

@enduml