@startuml
'https://plantuml.com/class-diagram

abstract class ChuoiMenhGiaFactory {
    # {abstract} MenhGiaATM getChuoiMenhGia(MenhGiaATM mgLonNhat)
    + {abstract} void rutTien(int soTien, MenhGiaATM mgLonNhat)
}

class ChuoiMenhGiaVND

abstract class MenhGiaATM {
    # int giaTri
    + {abstract} MenhGiaATM thietLapKeTiep(MenhGiaATM keTiep)
    + {abstract} void rutTien(int soTien)
}

class MenhGiaThapNhat
class MenhGia

MenhGiaATM <|-- MenhGia
MenhGiaATM <|-- MenhGiaThapNhat
MenhGia --> MenhGiaATM : "keTiep"

ChuoiMenhGiaFactory <|-- ChuoiMenhGiaVND
ChuoiMenhGiaVND *--> MenhGiaATM: "m500,\nm200,\n...,\nm1"

@enduml